<?xml version="1.0"?>
<svg xmlns="http://www.w3.org/2000/svg" viewBox="0 0 479.15 252.95">
  <defs>
    <style>.cls-1,.cls-2,.cls-3{stroke:#000;}.cls-1{stroke-width:2.95px;}.cls-2{stroke-miterlimit:10;}.cls-3,.cls-4{fill:none;}.cls-3{stroke-width:5.59px;}.cls-4{stroke:#fff;stroke-width:9px;}.cls-5{fill:#fff;}</style>
  </defs>
  <g id="Camada_2" data-name="Camada 2">
    <g id="Layer_1" data-name="Layer 1">
      <path class="cls-1" d="M239.58,1.48c-131.5,0-238.1,56-238.1,125s106.6,125,238.1,125,238.1-56,238.1-125-106.6-125-238.1-125"/>
      <path class="cls-1" d="M239.58,1.48c-131.5,0-238.1,56-238.1,125s106.6,125,238.1,125,238.1-56,238.1-125-106.6-125-238.1-125"/>
      <path class="cls-1" d="M239.58,1.58c-131.5,0-238,55.9-238,124.9s106.6,124.9,238,124.9,238-55.9,238-124.9-106.5-124.9-238-124.9"/>
      <path class="cls-1" d="M239.58,1.58c-131.5,0-238,55.9-238,124.9s106.6,124.9,238,124.9,238-55.9,238-124.9S371,1.58,239.58,1.58"/>
      <path class="cls-1" d="M239.58,1.58c-131.4,0-238,55.9-238,124.9s106.6,124.9,238,124.9,238-55.9,238-124.9S371,1.58,239.58,1.58"/>
      <path class="cls-1" d="M239.58,1.58c-131.4,0-238,55.9-238,124.9s106.5,124.9,238,124.9,238-55.9,238-124.9S371,1.58,239.58,1.58"/>
      <path class="cls-1" d="M239.58,1.68c-131.4,0-237.9,55.9-237.9,124.8s106.5,124.8,237.9,124.8,238-55.9,238-124.8S371,1.68,239.58,1.68"/>
      <path class="cls-1" d="M239.58,1.68c-131.4,0-237.9,55.9-237.9,124.8s106.5,124.8,237.9,124.8,237.9-55.9,237.9-124.8S371,1.68,239.58,1.68"/>
      <path class="cls-1" d="M239.58,1.68c-131.4,0-237.9,55.9-237.9,124.8s106.5,124.8,237.9,124.8,237.9-55.9,237.9-124.8S371,1.68,239.58,1.68"/>
      <path class="cls-1" d="M239.58,1.68c-131.4,0-237.8,55.9-237.8,124.8s106.5,124.8,237.9,124.8,237.8-55.9,237.8-124.8S371,1.68,239.58,1.68"/>
      <path class="cls-1" d="M239.58,1.78c-131.3,0-237.8,55.8-237.8,124.7s106.5,124.7,237.8,124.7,237.9-55.8,237.9-124.7S371,1.78,239.58,1.78"/>
      <path class="cls-1" d="M239.58,1.78c-131.3,0-237.8,55.8-237.8,124.7s106.5,124.7,237.8,124.7,237.8-55.8,237.8-124.7S370.88,1.78,239.58,1.78"/>
      <path class="cls-1" d="M239.58,1.78c-131.3,0-237.8,55.8-237.8,124.7s106.5,124.7,237.8,124.7,237.8-55.8,237.8-124.7S370.88,1.78,239.58,1.78"/>
      <path class="cls-1" d="M239.58,1.78c-131.3,0-237.7,55.9-237.7,124.7s106.4,124.7,237.7,124.7,237.8-55.8,237.8-124.7S370.88,1.78,239.58,1.78"/>
      <path class="cls-1" d="M239.58,1.88c-131.3,0-237.7,55.8-237.7,124.6s106.4,124.7,237.7,124.7,237.7-55.8,237.7-124.7S370.88,1.88,239.58,1.88"/>
      <path class="cls-1" d="M239.58,1.88c-131.2,0-237.7,55.8-237.7,124.6s106.4,124.6,237.7,124.6,237.7-55.8,237.7-124.6S370.88,1.88,239.58,1.88"/>
      <path class="cls-1" d="M239.58,1.88C108.38,1.88,2,57.68,2,126.48s106.4,124.6,237.7,124.6,237.7-55.8,237.7-124.6S370.88,1.88,239.58,1.88"/>
      <path class="cls-1" d="M239.58,1.88C108.38,1.88,2,57.68,2,126.48s106.4,124.6,237.6,124.6,237.7-55.8,237.7-124.6S370.88,1.88,239.58,1.88"/>
      <path class="cls-1" d="M239.58,2C108.38,2,2,57.68,2,126.48S108.38,251,239.58,251s237.6-55.8,237.6-124.5S370.88,2,239.58,2"/>
      <path class="cls-1" d="M239.58,2C108.38,2,2,57.68,2,126.48S108.38,251,239.58,251s237.6-55.7,237.6-124.5S370.78,2,239.58,2"/>
      <path class="cls-1" d="M239.58,2C108.38,2,2.08,57.78,2.08,126.48S108.48,251,239.68,251s237.6-55.7,237.6-124.5S370.78,2,239.58,2"/>
      <path class="cls-1" d="M239.58,2C108.48,2,2.08,57.78,2.08,126.48S108.48,251,239.58,251s237.6-55.7,237.6-124.5S370.78,2,239.58,2"/>
      <path class="cls-1" d="M239.58,2.08c-131.1,0-237.5,55.7-237.5,124.4S108.38,251,239.58,251s237.5-55.7,237.5-124.5S370.78,2.08,239.58,2.08"/>
      <path class="cls-1" d="M239.58,2.08c-131.1,0-237.4,55.7-237.4,124.4s106.3,124.4,237.5,124.4,237.5-55.7,237.5-124.4S370.78,2.08,239.58,2.08"/>
      <path class="cls-1" d="M239.58,2.08c-131.1,0-237.4,55.7-237.4,124.4s106.3,124.4,237.5,124.4,237.5-55.7,237.5-124.4S370.78,2.08,239.58,2.08"/>
      <path class="cls-1" d="M239.58,2.08c-131.1,0-237.4,55.7-237.4,124.4s106.3,124.4,237.4,124.4,237.5-55.7,237.5-124.4S370.78,2.08,239.58,2.08"/>
      <path class="cls-1" d="M239.68,2.18c-131.2,0-237.5,55.6-237.5,124.3s106.3,124.4,237.4,124.4,237.5-55.7,237.5-124.4S370.78,2.18,239.68,2.18"/>
      <path class="cls-1" d="M239.68,2.18c-131.1,0-237.4,55.7-237.4,124.3s106.3,124.3,237.4,124.3,237.4-55.7,237.4-124.3S370.78,2.18,239.68,2.18"/>
      <path class="cls-1" d="M239.68,2.18c-131.1,0-237.4,55.7-237.4,124.3s106.3,124.3,237.4,124.3S477,195.18,477,126.48,370.68,2.18,239.68,2.18"/>
      <path class="cls-1" d="M239.68,2.18c-131.1,0-237.4,55.7-237.4,124.3s106.3,124.3,237.3,124.3S477,195.18,477,126.48,370.68,2.18,239.68,2.18"/>
      <path class="cls-1" d="M239.68,2.28c-131.1,0-237.3,55.6-237.3,124.2s106.3,124.3,237.3,124.3S477,195.18,477,126.48,370.68,2.28,239.68,2.28"/>
      <path class="cls-1" d="M239.68,2.28c-131.1,0-237.3,55.6-237.3,124.2s106.2,124.2,237.3,124.2S477,195.08,477,126.48,370.68,2.28,239.68,2.28"/>
      <path class="cls-1" d="M239.68,2.28c-131.1,0-237.3,55.6-237.3,124.2s106.2,124.2,237.3,124.2S477,195.08,477,126.48,370.68,2.28,239.68,2.28"/>
      <path class="cls-1" d="M239.68,2.28c-131,0-237.3,55.6-237.3,124.2s106.2,124.2,237.2,124.2,237.3-55.6,237.3-124.2S370.68,2.28,239.68,2.28"/>
      <path class="cls-1" d="M239.68,2.38c-131,0-237.2,55.6-237.2,124.1s106.2,124.2,237.2,124.2,237.2-55.6,237.2-124.2S370.68,2.38,239.68,2.38"/>
      <path class="cls-1" d="M239.68,2.38c-131,0-237.2,55.6-237.2,124.1s106.2,124.1,237.2,124.1,237.2-55.6,237.2-124.1S370.68,2.38,239.68,2.38"/>
      <path class="cls-1" d="M239.68,2.38c-131,0-237.2,55.6-237.2,124.1s106.2,124.1,237.2,124.1,237.2-55.6,237.2-124.1S370.68,2.38,239.68,2.38"/>
      <path class="cls-1" d="M239.68,2.38c-131,0-237.1,55.6-237.1,124.1s106.2,124.1,237.1,124.1,237.2-55.6,237.2-124.1S370.58,2.38,239.68,2.38"/>
      <path class="cls-1" d="M239.68,2.48c-131,0-237.1,55.5-237.1,124s106.2,124.1,237.1,124.1,237.1-55.6,237.1-124.1-106.2-124-237.1-124"/>
      <path class="cls-1" d="M239.68,2.48c-130.9,0-237.1,55.5-237.1,124s106.1,124,237.1,124,237.1-55.5,237.1-124-106.2-124-237.1-124"/>
      <path class="cls-1" d="M239.68,2.48c-130.9,0-237.1,55.5-237.1,124s106.1,124,237,124,237.1-55.5,237.1-124-106.1-124-237-124"/>
      <path class="cls-1" d="M239.68,2.48c-130.9,0-237,55.6-237,124s106.1,124,237,124,237-55.5,237-124-106.1-124-237-124"/>
      <path class="cls-1" d="M239.68,2.58c-130.9,0-237,55.5-237,124s106.1,124,237,124,237-55.5,237-124-106.1-124-237-124"/>
      <path class="cls-1" d="M239.68,2.58c-130.9,0-237,55.5-237,124s106.1,123.9,237,123.9,237-55.5,237-123.9-106.1-124-237-124"/>
      <path class="cls-1" d="M239.68,2.58c-130.9,0-237,55.5-237,124s106.1,123.9,237,123.9,237-55.5,237-123.9-106.1-124-237-124"/>
      <path class="cls-1" d="M239.68,2.58c-130.8,0-236.9,55.5-236.9,124s106.1,123.9,236.9,123.9,236.9-55.5,236.9-123.9-106.1-124-236.9-124"/>
      <path class="cls-1" d="M239.68,2.68c-130.8,0-236.9,55.4-236.9,123.9s106.1,123.9,236.9,123.9,236.9-55.5,236.9-123.9S370.48,2.68,239.68,2.68"/>
      <path class="cls-1" d="M239.68,2.68c-130.8,0-236.9,55.4-236.9,123.9s106.1,123.8,236.9,123.8,236.9-55.5,236.9-123.8c0-68.5-106.1-123.9-236.9-123.9"/>
      <path class="cls-1" d="M239.68,2.68c-130.8,0-236.8,55.5-236.8,123.9s106,123.8,236.8,123.8,236.9-55.4,236.9-123.8S370.48,2.68,239.68,2.68"/>
      <path class="cls-1" d="M239.68,2.68c-130.8,0-236.8,55.5-236.8,123.9s106,123.8,236.8,123.8,236.8-55.5,236.8-123.8-106-123.9-236.8-123.9"/>
      <path class="cls-1" d="M239.68,2.78c-130.8,0-236.8,55.4-236.8,123.8s106,123.8,236.8,123.8,236.8-55.5,236.8-123.8-106-123.8-236.8-123.8"/>
      <path class="cls-1" d="M239.68,2.78C109,2.78,2.88,58.18,2.88,126.58s106,123.7,236.8,123.7,236.8-55.4,236.8-123.7-106-123.8-236.8-123.8"/>
      <path class="cls-1" d="M239.68,2.78C109,2.78,3,58.18,3,126.58s106,123.7,236.7,123.7,236.8-55.4,236.8-123.7-106-123.8-236.8-123.8"/>
      <path class="cls-1" d="M239.68,2.78C109,2.78,3,58.18,3,126.58s106,123.7,236.7,123.7,236.8-55.4,236.8-123.7-106-123.8-236.8-123.8"/>
      <path class="cls-1" d="M239.68,2.88C109,2.88,3,58.18,3,126.58s106,123.7,236.7,123.7,236.7-55.4,236.7-123.7-106-123.7-236.7-123.7"/>
      <path class="cls-1" d="M239.68,2.88C109,2.88,3.08,58.28,3.08,126.58s106,123.7,236.7,123.7,236.7-55.4,236.7-123.7S370.38,2.88,239.68,2.88"/>
      <path class="cls-1" d="M239.68,2.88C109,2.88,3.08,58.28,3.08,126.58s106,123.6,236.6,123.6,236.7-55.4,236.7-123.6-106-123.7-236.7-123.7"/>
      <path class="cls-1" d="M239.68,2.88c-130.6,0-236.6,55.4-236.6,123.7s105.9,123.6,236.6,123.6,236.6-55.3,236.6-123.6S370.38,2.88,239.68,2.88"/>
      <path class="cls-1" d="M239.68,3C109.08,3,3.08,58.28,3.08,126.58s105.9,123.6,236.6,123.6,236.6-55.3,236.6-123.6S370.38,3,239.68,3"/>
      <path class="cls-1" d="M239.68,3C109.08,3,3.18,58.28,3.18,126.58s105.9,123.6,236.6,123.6,236.6-55.3,236.6-123.6S370.38,3,239.68,3"/>
      <path class="cls-1" d="M239.68,3C109.08,3,3.18,58.28,3.18,126.58s105.9,123.5,236.5,123.5,236.6-55.3,236.6-123.5S370.38,3,239.68,3"/>
      <path class="cls-1" d="M239.68,3C109.08,3,3.18,58.28,3.18,126.58s105.9,123.5,236.5,123.5,236.5-55.3,236.5-123.5S370.38,3,239.68,3"/>
      <path class="cls-1" d="M239.68,3.08c-130.6,0-236.4,55.3-236.4,123.5s105.9,123.5,236.5,123.5,236.5-55.3,236.5-123.5-106-123.5-236.6-123.5"/>
      <path class="cls-1" d="M239.68,3.08c-130.5,0-236.4,55.3-236.4,123.5s105.9,123.5,236.5,123.5,236.5-55.3,236.5-123.5-106-123.5-236.6-123.5"/>
      <path class="cls-1" d="M239.68,3.08c-130.5,0-236.4,55.3-236.4,123.5S109.18,250,239.68,250s236.4-55.3,236.4-123.4S370.28,3.08,239.68,3.08"/>
      <path class="cls-1" d="M239.68,3.18c-130.5,0-236.4,55.2-236.4,123.4S109.08,250,239.68,250s236.4-55.3,236.4-123.4S370.28,3.18,239.68,3.18"/>
      <path class="cls-1" d="M239.78,3.18c-130.6,0-236.4,55.2-236.4,123.4S109.18,250,239.78,250s236.4-55.2,236.4-123.4S370.28,3.18,239.78,3.18"/>
      <path class="cls-1" d="M239.78,3.18c-130.6,0-236.4,55.2-236.4,123.4S109.18,250,239.78,250s236.4-55.2,236.4-123.4S370.28,3.18,239.78,3.18"/>
      <path class="cls-2" d="M239.78,3.18c-130.6,0-236.4,55.2-236.4,123.4s105.8,123.3,236.3,123.3,236.4-55.2,236.4-123.3S370.28,3.18,239.78,3.18"/>
      <path d="M239.58,25.08c-118.4,0-214.4,45.9-214.4,102.4s96,102.4,214.4,102.4S454,184,454,127.48s-96-102.4-214.4-102.4"/>
      <path class="cls-3" d="M239.58,19.08c-121.6,0-220.1,48.2-220.1,107.6s98.6,107.5,220.1,107.5,220.2-48.2,220.2-107.5-98.6-107.6-220.2-107.6"/>
      <path class="cls-4" d="M245.08,14.7C118.53,14.7,15,64.86,15,126.68s103.65,111.87,230.1,111.87"/>
      <path class="cls-4" d="M242.93,238.55c122.13,0,222.07-50.16,222.07-112S365,14.7,242.93,14.7"/>
      <polygon class="cls-5" points="371.68 77.67 335.68 77.67 331.27 90.78 354.57 90.78 327.98 100.47 326.27 105.78 367.07 91.67 371.68 77.67"/>
      <path class="cls-5" d="M146.08,99.68l-4.9,14h-35s.8-.3,2-2.7,17.3-49.6,17.3-49.6,2.2-4.9-.3-6.2h20.3s-1.2-.3-3.1,4.7c-1.1,2.9-14.7,40.7-14.7,40.7h14.6c0,.1,3.3.5,3.8-.9"/>
      <path class="cls-5" d="M203.78,113.58h16.5a4.66,4.66,0,0,1-.4-3.7c1-2.7,9.7-27.6,9.7-27.6l3.8,31.3h15L268,58s.8-2.6,1.9-2.6H254a6.29,6.29,0,0,1-.1,3.4c-.6,1.5-9.6,26.7-9.6,26.7l-3.5-30.1h-17.1a3.9,3.9,0,0,1,.3,3.1c-.5,1.3-18.1,51.9-18.1,51.9s-1.2,3.2-2.1,3.2"/>
      <path class="cls-5" d="M298,55.38h-18.8s1.4,2.4-.4,7.8-16.2,46-16.2,46-1.1,3.8-2.7,4.5h22.6s27.4,1.1,35.8-29c0,.1,10.8-29.6-20.3-29.3m2,31.9c-4.8,12.2-11.9,13.1-15.7,13.1h-2.6l11-32.4h4.2s10.9-.7,3.1,19.3"/>
      <polygon class="cls-5" points="80.97 160.78 116.97 160.78 121.38 147.68 98.08 147.68 124.67 137.97 126.38 132.68 85.47 146.78 80.97 160.78"/>
      <path class="cls-5" d="M183.38,148.48c6.8-22.6-16-22-16-22h-23.3c1.7,2,.4,6.1.4,6.1s-14.5,43.3-15.6,46.7a18.54,18.54,0,0,1-3.2,5.7h18.4c-.6,0-.6-1.9-.6-1.9l6.6-18.3s8.2,16.9,8.8,18.1a3.22,3.22,0,0,1,.3,2.2h19.7c-1.9,0-3.8-3.7-3.8-3.7l-9.8-18.4c13.7-.3,18.1-14.5,18.1-14.5m-16-2c-2.6,5.8-9.5,5.1-9.5,5.1h-3.6l3.8-11.7H162c8.4,0,5.4,6.6,5.4,6.6"/>
      <path class="cls-5" d="M387,149.28c7.2-23.7-15.8-22.6-15.8-22.6h-23.1c1.7,2,.4,6.1.4,6.1s-15.1,43.5-16.2,46.8a15.5,15.5,0,0,1-3.3,5.5h19.2c-1.4,0-.4-3.6-.4-3.6l5.9-16.7s7.9,16.9,8.5,18.1a3.22,3.22,0,0,1,.3,2.2h20.4c-1.9,0-4-3.7-4-3.7l-9.8-18.4c13.7,0,17.9-13.7,17.9-13.7m-16.4-2.5c-2.1,5.6-9,5.1-9,5.1H358l3.8-11.6h5.1s6.2-.2,3.7,6.5"/>
      <path class="cls-5" d="M220,125c-18,0-29.8,14.3-32.8,32-2.8,16.3,6,29.4,20.6,29.4,20.3,0,32.5-20.9,32.5-35.9,0-15.7-6.2-25.5-20.3-25.5m2.7,32.5c-2.9,12.2-8.5,16-13.6,15-6.9-1.3-5.7-12.5-4.6-17.7,2.4-11.3,8.5-16.7,13-16.2,1.5.3,9.6.4,5.2,18.9"/>
      <path class="cls-5" d="M245.08,126.68s1.4.8,1.4,4.5v50.6s-.2,2.8-1.2,3.4h15.2A6.13,6.13,0,0,1,262,182c1.5-2,32.9-46,32.9-46s7.1-9.2,9-9.2h-21.7a2.34,2.34,0,0,1,.4,3.3c-1.3,2.2-20.6,32.3-20.6,32.3l.2-30.4s0-4.9,1.8-5.3h-18.9"/>
      <path class="cls-5" d="M336.58,140.48l4.9-13.8h-36.7s1.3,1.2-.4,6.1-16.6,46.8-16.6,46.8-2.7,5.5-3.4,5.5h37.8l4.5-14s-.6.8-4.1.8h-16l3.4-9.4h12.5s2.6-.2,3.2.6l5.1-14.9s-.4,1.4-3.8,1.4H315l3.6-10.4h15.2a2.44,2.44,0,0,1,2.8,1.3"/>
      <path class="cls-5" d="M201.88,113.68a4.24,4.24,0,0,1-1.6-3.1L198,59.28s-.1-3.3,1.4-4h-17.9s1.3,1.6-1.1,5.3-33,51.1-33,51.1a4.65,4.65,0,0,1-2.1,1.9h18.1a5.28,5.28,0,0,1,.4-2.4c.9-1.7,3.1-5.8,3.1-5.8h18.2v5.1a4.43,4.43,0,0,1-1.2,3.1C183.78,113.68,201.88,113.68,201.88,113.68Zm-27.3-21.4,10-17.1.1,17.1Z"/>
    </g>
  </g>
</svg>
