<?xml version="1.0"?>
<svg xmlns="http://www.w3.org/2000/svg" viewBox="0 0 4095.05 785.24">
  <defs>
    <style>.cls-1{fill:none;}.cls-2{fill:#fff;}</style>
  </defs>
  <g id="Camada_2" data-name="Camada 2">
    <g id="Camada_1-2" data-name="Camada 1">
      <g id="M6YZlI.tif">
        <path d="M4.49,782.12C3,782.12,1.5,782,0,782v2.87H652.7c42.65,0,85.29-.26,127.94.37,1.93,0,3.34-.81,4.33-3.21-.92.1-2.13.1-3.75.1Z"/>
        <path class="cls-1" d="M2213.61,295.56c-9.88.05-8.76-1.87-10.57,8.55-.36,2.13-.81,4.25-1.16,6.38q-8.85,54.66-17.64,109.33c-1.44,9-2.4,18.07-3.58,27.1l-1.1.08c-.83-1.6-1.67-3.19-2.47-4.81q-34.66-70.57-69.21-141.22c-2.07-4.25-4.52-5.59-9.11-5.55-25,.22-50,.09-75,.11-9.52,0-7.65-.66-9.19,7.86Q1990.18,437.66,1966,572c-.31,1.73-.38,3.5-.56,5.27a11.38,11.38,0,0,0,2.42.66c28.33.05,56.65.11,85-.06,1.28,0,3.29-2,3.7-3.46a115.6,115.6,0,0,0,2.45-12.72c5.64-34.29,11.33-68.58,16.82-102.89,1.69-10.6,2.8-21.28,4.18-31.93a11,11,0,0,1,3.37,4.41q35,71,69.83,142c1.7,3.47,3.67,4.86,7.6,4.84q39.24-.24,78.48,0c4.2,0,5.68-1.4,6.42-5.5q22.65-126,45.55-251.89c1.48-8.13,2.86-16.28,4.38-24.91-2.44-.12-4.23-.28-6-.28C2264.26,295.52,2238.94,295.45,2213.61,295.56Z"/>
        <path class="cls-1" d="M2527.62,297.67c-19.6-7.54-40-9.7-60.81-9.46-33.06.37-64.52,6.65-93.14,24.06q-36.59,22.26-45,64.23c-6.28,31.35,2.79,55.51,28,70.19a169.49,169.49,0,0,0,33.74,14.69c20.13,6.39,40.72,11.32,61.06,17.09a61.77,61.77,0,0,1,13.36,5.48c9.23,5.2,11.12,15.3,4.1,23.23a31.42,31.42,0,0,1-11.25,7.93,66.37,66.37,0,0,1-39.71,3.56c-13.42-2.88-23.24-10-25.11-24.77-.47-3.74-2.88-3.43-5.38-3.43-27,0-54,.06-81-.06-3.74,0-5.32,1.07-5.63,4.94-1.45,18.53,3,35.35,14.25,50.2,12,15.83,28,26.13,46.77,31.74,49,14.65,97,10,143.16-11,34-15.45,54.47-42.14,61.08-79.25,4.36-24.52-2-45-22.2-60a92.85,92.85,0,0,0-24.44-13.33c-18.86-6.5-38.22-11.54-57.33-17.32-10.19-3.08-20.41-6.12-30.38-9.81-6.23-2.31-10.82-6.89-10.91-14.14-.09-7.54,4.13-13.2,12.21-15.85a62.85,62.85,0,0,1,39.77-.14c8.34,2.71,13.45,8.51,14.34,17.39.31,3.05,1.58,3.89,4.43,3.88q41.73-.1,83.47-.07a15.28,15.28,0,0,0,2.23-.35C2579,345.09,2564.11,311.71,2527.62,297.67Z"/>
        <path class="cls-1" d="M2884.17,360c-3.75-28.47-21.62-45.5-47.36-55.36-17.64-6.76-36.19-8.9-54.91-9-46.47-.2-92.94,0-139.4-.17-4,0-5.75.95-6.52,5.26q-24.22,135-48.77,269.94c-1.33,7.36-1.28,7.38,6.18,7.39h80.44c7.32,0,7.28,0,8.56-7,4.58-25,9.33-50,13.65-75.08.82-4.76,2.77-5.86,7.18-5.74,10.15.28,20.31.09,30.47.08,4.67,0,9.33.1,14,0,22.58-.56,44.81-3.13,66.06-11.48C2860.34,460.46,2890.71,409.67,2884.17,360Z"/>
        <path class="cls-1" d="M1881.84,301.32c-.84-4.54-2.46-5.92-7-5.89q-42.72.29-85.45,0c-4.07,0-6.21,1.34-8.13,4.85q-74.43,135.95-149,271.79c-.86,1.57-1.61,3.19-2.71,5.37a25.59,25.59,0,0,0,3.36.55c28.48,0,57,.1,85.44-.13,1.9,0,4.63-1.91,5.53-3.66,5-9.77,9.64-19.73,14.23-29.7,1.27-2.75,2.83-4,6-4q42.72.16,85.44,0c3.66,0,4.85,1.29,5.17,4.85.84,9.1,2.28,18.15,3.13,27.25.39,4.15,2,5.55,6.24,5.52,27.81-.18,55.63-.09,83.45-.11,1.72,0,3.45-.31,5.46-.51-.27-2.26-.36-3.91-.66-5.51Q1907,436.67,1881.84,301.32Z"/>
        <path class="cls-1" d="M1619,418.7c14.22-17.51,20.63-37.87,21.45-60,.93-24.81-10.37-41.91-33.27-51.6a95.59,95.59,0,0,0-9.86-3.53c-19.82-5.92-40.26-7.64-60.76-7.81-47.64-.39-95.29-.08-142.94-.36-5.19,0-6.34,2.07-7.12,6.4q-22.12,123-44.44,246c-1.77,9.76-3.5,19.54-5.3,29.68a38.48,38.48,0,0,0,4.41.58c28.66,0,57.31,0,86,.08,3.5,0,5-1.2,5.58-4.68,5.22-29.65,10.66-59.25,15.86-88.9.63-3.6,1.81-5.15,5.71-5,9.48.27,19-.33,28.47.25a125.34,125.34,0,0,1,24.13,3.45c10.34,2.71,15.5,9.93,15.57,20.59,0,6.44-.88,12.91-1.56,19.34-1.72,16.19-3.57,32.36-5.32,48.54-.53,4.87,1.53,6.55,6.61,6.51,28-.24,56-.11,84-.12,1.33,0,3,.38,3.91-.26a7.33,7.33,0,0,0,2.88-3.93c.36-1.48.11-4.33-.72-4.7-6.25-2.77-5.89-8-5.21-13.19,1.16-8.73,2.67-17.42,4.11-26.11,2.49-15.09,5.61-30.1,4.57-45.56-.9-13.22-6-23.77-18.18-30-5.89-3-11.84-6-18.57-9.33,2.35-.87,4-1.52,5.75-2.13A75.87,75.87,0,0,0,1619,418.7Z"/>
        <path class="cls-1" d="M1338.69,364.14c1.78-11,3.87-21.95,5.82-32.92,2.06-11.59,4.09-23.19,6.24-35.39-2.63-.12-4.73-.29-6.84-.29q-43.23,0-86.46,0c-55.31,0-110.62.08-165.93-.11-5,0-6.88,1.52-7.63,6.42-2.19,14.13-4.88,28.18-7.38,42.26-1.47,8.29-3,16.58-4.57,25.7h6.65c24.32,0,48.64,0,73,0,3.64,0,5.58.41,4.74,4.95q-16.71,91-33.18,182.08c-1.23,6.8-2.39,13.62-3.59,20.45a13.91,13.91,0,0,0,2.62.68c29.66.05,59.31.11,89-.06,1.33,0,3.45-1.93,3.82-3.32,1.29-4.81,2-9.77,2.88-14.68q16.71-92,33.32-184.09c.85-4.76,2.66-6.13,7.43-6.08,24.48.24,49,0,73.46.23C1336.58,370,1338,368.2,1338.69,364.14Z"/>
        <path class="cls-1" d="M3730.07,307.29a98.56,98.56,0,0,0-10.81-3.86c-19.66-5.86-40-7.52-60.27-7.69-47.48-.39-95-.11-142.44-.33-5,0-6.75,1.44-7.63,6.4q-19,106.33-38.37,212.59c-3.76,20.77-7.51,41.53-11.42,63.14,2.14.21,3.59.48,5,.48,28.32,0,56.65,0,85,.08,3.92,0,5.47-1.31,6.15-5.22,5.16-29.49,10.6-58.93,15.77-88.41.63-3.64,1.89-5.1,5.74-5,9.66.25,19.35-.33,29,.25a121.06,121.06,0,0,1,23.62,3.45c10.31,2.75,15.49,10,15.56,20.62,0,6.28-.83,12.58-1.5,18.85-1.74,16.35-3.59,32.69-5.4,49-.55,5,1.65,6.5,6.64,6.46,28-.22,56-.1,84-.11,1.33,0,3.15.42,3.89-.26a10.91,10.91,0,0,0,3-5c.3-1.16-.45-3.51-1.36-3.92-4.29-1.94-5.3-5.49-4.95-9.47.55-6.28,1.55-12.53,2.4-18.79,2.19-16,4.91-31.87,6.48-47.9,2.06-21-7.18-35.54-27-43.2-3.15-1.22-6.17-2.76-10.09-4.52,2.26-.81,3.49-1.26,4.73-1.69,12.82-4.44,24-11.37,33.07-21.59,14.74-16.61,21.54-36.3,23.83-58.08C3765.41,337.56,3754.21,317.64,3730.07,307.29Z"/>
        <path class="cls-1" d="M4026.27,298.44c-26.73-10.54-54.48-12.05-82.59-8.93-50,5.54-91.1,27.71-121.7,67.72-29.48,38.57-39.85,83-35.56,130.73,3.34,37.2,21.78,65.47,55.71,82.61,22.22,11.22,46.15,14.61,65.45,14.79,24.71,0,43.8-2.54,62.38-8.28,80.77-24.92,133.95-105.93,123.86-190.29C4088.78,344.62,4066.59,314.33,4026.27,298.44Z"/>
        <path class="cls-1" d="M3461.15,363.94c2.11-13.13,4.62-26.2,6.95-39.3,1.67-9.44,3.3-18.89,5-28.65-1.9-.2-3.2-.44-4.49-.44q-128.19,0-256.37-.09c-3.55,0-4.9,1.13-5.51,4.62-3.72,21.47-7.67,42.89-11.5,64.33-.28,1.56-.25,3.18-.42,5.43h84.35c-.32,2.45-.49,4.22-.8,6q-17.73,97.93-35.48,195.86c-1.15,6.34-1.16,6.38,5.37,6.38q40.47,0,81,0c7.77,0,7.71,0,9.08-7.58q17.61-97.19,35.16-194.4c.88-4.92,2.7-6.44,7.7-6.39,24.32.26,48.65,0,73,.24C3458.82,370,3460.44,368.33,3461.15,363.94Z"/>
        <path class="cls-1" d="M2941.09,295.44c-4.49,0-6.24,1.17-7.07,5.82q-22,123-44.46,245.93c-1.8,9.93-3.53,19.88-5.37,30.29,2,.22,3.42.53,4.85.53q115.93,0,231.88.1c4.08,0,5.46-1.62,6.1-5.32,2.33-13.6,4.9-27.16,7.36-40.74,1.18-6.49,2.33-13,3.66-20.43h-146a23.74,23.74,0,0,1,0-3.28c2-11.29,4.4-22.53,6-33.89.75-5.52,2.91-6.89,8.3-6.85,35.64.25,71.29.06,106.94.21,4.11,0,5.81-1.13,6.49-5.34,2.66-16.41,5.71-32.76,8.6-49.13.65-3.67,1.24-7.35,2-11.88H3011.16c2.05-11.43,4-22,5.83-32.64,1.46-8.69,1.4-7.12,8.79-7.13q64.21-.07,128.44.05c3.9,0,5.58-1.09,6.18-5.08,1.3-8.71,3.13-17.34,4.71-26,2.07-11.42,4.1-22.85,6.25-34.81-2.33-.13-4.11-.3-5.89-.3Q3053.29,295.51,2941.09,295.44Z"/>
        <path class="cls-2" d="M351.37,417.49c-1.08.88-2.2,1.73-3.33,2.54C349.17,419.22,350.29,418.37,351.37,417.49Z"/>
        <path class="cls-2" d="M346.33,421.23c-1.14.79-2.3,1.56-3.44,2.31C344,422.79,345.19,422,346.33,421.23Z"/>
        <path class="cls-2" d="M358.85,449.49a52,52,0,0,1,3,5.9A52,52,0,0,0,358.85,449.49Z"/>
        <path class="cls-2" d="M382.91,353.87q0,1.31,0,2.58Q382.93,355.18,382.91,353.87Z"/>
        <path class="cls-2" d="M371.41,395.38c-.86,1.35-1.75,2.68-2.7,4C369.66,398.06,370.55,396.73,371.41,395.38Z"/>
        <path class="cls-2" d="M377,384.87q-.93,2.19-2,4.3Q376,387.05,377,384.87Z"/>
        <path class="cls-2" d="M366.66,479.22c0,.55,0,1.11,0,1.67C366.68,480.33,366.67,479.77,366.66,479.22Z"/>
        <path class="cls-2" d="M781.88,189.81h0Z"/>
        <path class="cls-2" d="M783.13,189.68l.14,0Z"/>
        <path class="cls-2" d="M785,189l0,0Z"/>
        <path class="cls-2" d="M364.9,464.63q.56,2.36.93,4.77Q365.46,467,364.9,464.63Z"/>
        <path class="cls-2" d="M362.49,456.9a54.06,54.06,0,0,1,2,6.16A54.06,54.06,0,0,0,362.49,456.9Z"/>
        <path class="cls-2" d="M365.83,469.4a77.4,77.4,0,0,1,.83,9.82A77.4,77.4,0,0,0,365.83,469.4Z"/>
        <path class="cls-2" d="M476.68,571.79a7.8,7.8,0,0,1-.78,1.11A7.8,7.8,0,0,0,476.68,571.79Z"/>
        <path class="cls-2" d="M684.15,414.49c-1.27,1.49-2.57,2.94-3.93,4.34C681.58,417.43,682.88,416,684.15,414.49Z"/>
        <path class="cls-2" d="M576.42,468.38a26.61,26.61,0,0,0-4.89-1.8A26.61,26.61,0,0,1,576.42,468.38Z"/>
        <path class="cls-2" d="M691.12,405.07q-1.59,2.48-3.34,4.83Q689.54,407.54,691.12,405.07Z"/>
        <path class="cls-2" d="M705.81,357.5c0,1.32-.08,2.64-.17,4C705.73,360.14,705.79,358.82,705.81,357.5Z"/>
        <path class="cls-2" d="M633.06,284.86a29.67,29.67,0,0,0,4.17,1.19A29.67,29.67,0,0,1,633.06,284.86Z"/>
        <path class="cls-2" d="M571.53,466.58a37.2,37.2,0,0,0-5.76-1A37.2,37.2,0,0,1,571.53,466.58Z"/>
        <path class="cls-2" d="M700.39,386.07q-1,3-2.25,5.77Q699.36,389,700.39,386.07Z"/>
        <path class="cls-2" d="M334.68,292.51c1.57.45,3.12.93,4.67,1.45C337.8,293.44,336.25,293,334.68,292.51Z"/>
        <path class="cls-2" d="M310.66,287.21l7.26,1.44Z"/>
        <path class="cls-2" d="M354.44,300.82c1.3.78,2.55,1.6,3.77,2.45C357,302.42,355.74,301.6,354.44,300.82Z"/>
        <path class="cls-2" d="M785.7,188.48l0,0Z"/>
        <path class="cls-2" d="M305.84,286.2c1.6.35,3.21.69,4.82,1C309.05,286.89,307.44,286.55,305.84,286.2Z"/>
        <path class="cls-2" d="M391.4,574.33h0l10.52-36.25Z"/>
        <path class="cls-2" d="M473.25,574.6a10.31,10.31,0,0,1-2.19.4A10.31,10.31,0,0,0,473.25,574.6Z"/>
        <path class="cls-2" d="M451.44,574.92q8.93,0,17.86.13c.63,0,1.22,0,1.76,0-.54,0-1.13.06-1.76,0Q460.38,574.95,451.44,574.92Z"/>
        <path class="cls-2" d="M474.45,574.09a5.33,5.33,0,0,0,1.45-1.19A5.33,5.33,0,0,1,474.45,574.09Z"/>
        <path class="cls-2" d="M301.18,285Z"/>
        <path class="cls-2" d="M160.77,574.21q43.6,0,87.22-.16c4.62,0,9.24-.12,13.85-.35-4.61.23-9.23.33-13.85.35Q204.39,574.24,160.77,574.21Z"/>
        <path class="cls-2" d="M670.63,571.41c0-.57,0-1.13,0-1.7q-.95-22.82-1.93-45.63,1,22.81,1.93,45.63C670.62,570.28,670.63,570.84,670.63,571.41Z"/>
        <path class="cls-2" d="M635.33,284.73c.76,0,1.51-.07,2.27-.07h0C636.84,284.66,636.09,284.69,635.33,284.73Z"/>
        <path class="cls-2" d="M701.4,383.09q1.44-4.53,2.49-9.39.9-4.14,1.38-8.19-.48,4-1.38,8.19Q702.84,378.56,701.4,383.09Z"/>
        <path class="cls-2" d="M352.46,299.68a77.48,77.48,0,0,0-10.81-4.92l-2.3-.8,2.3.8A77.48,77.48,0,0,1,352.46,299.68Z"/>
        <path class="cls-2" d="M556.33,465.1l6.24.21c1.1.05,2.17.13,3.2.24-1-.11-2.1-.19-3.2-.24Z"/>
        <path class="cls-2" d="M151.82,284.64q-5.26,18.17-10.52,36.29,5.26-18.14,10.52-36.29Z"/>
        <path class="cls-2" d="M613.75,577.09,668.1,577a4.22,4.22,0,0,0,.49,0,4.22,4.22,0,0,1-.49,0Z"/>
        <path class="cls-2" d="M72.33,574.18h0Z"/>
        <path class="cls-2" d="M668.66,524.08q-1-22.82-1.92-45.63a41.24,41.24,0,0,0-1.36-9,41.24,41.24,0,0,1,1.36,9Q667.71,501.27,668.66,524.08Z"/>
        <path class="cls-2" d="M537.6,464.84l-12.5-.07Z"/>
        <path class="cls-2" d="M669.13,576.88c.39-.09.86-.22,1.47-.34,0-1.15,0-2.29,0-3.43,0,1.14,0,2.28,0,3.43C670,576.66,669.52,576.79,669.13,576.88Z"/>
        <path class="cls-2" d="M394.9,574.71l-2.54-.29Z"/>
        <path class="cls-2" d="M391.4,574.33l1,.09-1-.09Z"/>
        <path class="cls-2" d="M511.09,464.64a6.94,6.94,0,0,0-1.28.23A6.94,6.94,0,0,1,511.09,464.64Z"/>
        <path class="cls-2" d="M688.58,310.05a65.84,65.84,0,0,1,4.52,5.6A65.84,65.84,0,0,0,688.58,310.05Z"/>
        <path class="cls-2" d="M705.12,345.94a74.5,74.5,0,0,1,.69,11.56A74.5,74.5,0,0,0,705.12,345.94Z"/>
        <path class="cls-2" d="M697,321.7a66.37,66.37,0,0,1,4.56,9.86A66.37,66.37,0,0,0,697,321.7Z"/>
        <path class="cls-2" d="M786.82,285.42h0c-.86-.76-2.52-.77-5.77-.77C784.3,284.65,786,284.66,786.82,285.42Z"/>
        <path class="cls-2" d="M637.23,286.05c1.39.3,2.77.51,4.16.68C640,286.56,638.62,286.35,637.23,286.05Z"/>
        <path class="cls-2" d="M606.75,343.43c-20.12-.44-40.26-.05-60.38-.33-4.26-.06-5.69,1.63-6.69,5.39-4.58,17.16-9.43,34.25-14.16,51.37-.7,2.51-1.3,5-2,8a18.76,18.76,0,0,0,2.82.59c21.3,0,42.62.62,63.88-.19,18.51-.72,33.46-8.63,41.11-26.61C640,361.13,629.05,343.91,606.75,343.43Z"/>
        <path class="cls-2" d="M657.17,455.26a28.86,28.86,0,0,1,3.53,4.13A28.86,28.86,0,0,0,657.17,455.26Z"/>
        <path class="cls-2" d="M582.19,472.55a19.84,19.84,0,0,0-3.64-3A19.84,19.84,0,0,1,582.19,472.55Z"/>
        <path class="cls-2" d="M586.16,478.5a21,21,0,0,0-4-5.95A21,21,0,0,1,586.16,478.5Z"/>
        <path class="cls-2" d="M260.36,453.32a70.28,70.28,0,0,0-11.4-1.07c-19-.13-38,0-56.93-.21-3.82-.05-5.19,1.54-6.12,4.85-4,14.4-8.23,28.74-12.38,43.11-1.32,4.59-2.66,9.17-4.24,14.63,2.46.25,3.9.53,5.35.53,18.81,0,37.62.15,56.43-.07a101.78,101.78,0,0,0,17.84-1.78c18.68-3.57,31.25-18.66,31.06-36.75C279.84,464.11,272.58,455.4,260.36,453.32Z"/>
        <path class="cls-2" d="M642.56,444.24l-1.67.77Z"/>
        <path class="cls-2" d="M283.57,342.71c-20.13-.1-40.26,0-60.39-.14-3.76,0-5.25,1.46-6.16,4.86-3.31,12.35-6.85,24.63-10.3,36.94-1.06,3.79-2.11,7.58-3.23,11.58a16.56,16.56,0,0,0,3,.71c24.12,0,48.27.56,72.35-.36,13.3-.51,23.74-7.48,28.6-20.65,5.43-14.69-1.2-28.14-15.5-31.82A34.37,34.37,0,0,0,283.57,342.71Z"/>
        <path class="cls-2" d="M780.64,189.85c.44,0,.85,0,1.24,0C781.49,189.83,781.08,189.85,780.64,189.85Z"/>
        <path class="cls-2" d="M591.89,572.75q-.69-20.07-1.43-40.15.74,20.07,1.43,40.15c.09,2.64.36,4.4,3.74,4.38l18.12,0-18.12,0C592.25,577.15,592,575.39,591.89,572.75Z"/>
        <path class="cls-2" d="M366.56,485.94c-.05,1.13-.12,2.27-.21,3.41C366.44,488.21,366.51,487.07,366.56,485.94Z"/>
        <path class="cls-2" d="M748.65,189.77q-32,0-64,0Q716.68,189.74,748.65,189.77Z"/>
        <path class="cls-2" d="M331.36,553.24a89.29,89.29,0,0,1-8,5.2A89.29,89.29,0,0,0,331.36,553.24Z"/>
        <path class="cls-2" d="M357.8,521.88q-1.43,2.93-3.06,5.7Q356.38,524.81,357.8,521.88Z"/>
        <path class="cls-2" d="M320.61,560q-2.82,1.5-5.73,2.82Q317.79,561.49,320.61,560Z"/>
        <path class="cls-2" d="M782.08,189.8q.57,0,1-.12Q782.65,189.76,782.08,189.8Z"/>
        <path class="cls-2" d="M785.68,188.5a3.24,3.24,0,0,1-.64.52A3.24,3.24,0,0,0,785.68,188.5Z"/>
        <path class="cls-2" d="M0,284.64Z"/>
        <path class="cls-2" d="M786.81,185.83a4.7,4.7,0,0,1-1.11,2.65,4.7,4.7,0,0,0,1.11-2.65Z"/>
        <path class="cls-2" d="M783.27,189.65A5,5,0,0,0,785,189,5.18,5.18,0,0,1,783.27,189.65Z"/>
        <path class="cls-2" d="M67.87,574.18q21-72.56,42-144.72Q88.88,501.73,67.87,574.18Z"/>
        <path class="cls-2" d="M475.42,285l-63,216.88,63-216.88Z"/>
        <path class="cls-2" d="M366.68,480.89c0,1.67,0,3.35-.12,5.05C366.64,484.24,366.68,482.56,366.68,480.89Z"/>
        <path class="cls-2" d="M491.68,519.46q7-24.6,13.85-49.21a15.32,15.32,0,0,1,.69-2,15.32,15.32,0,0,0-.69,2Q498.69,494.88,491.68,519.46Z"/>
        <path class="cls-2" d="M370.7,315.14a55.2,55.2,0,0,1,6.59,11.05A55.2,55.2,0,0,0,370.7,315.14Z"/>
        <path class="cls-2" d="M368,311.86q1.44,1.59,2.73,3.28Q369.41,313.45,368,311.86Z"/>
        <path class="cls-2" d="M586.16,478.5A36.85,36.85,0,0,1,589,492.44q.71,20.08,1.46,40.16-.74-20.08-1.46-40.16A36.85,36.85,0,0,0,586.16,478.5Z"/>
        <path class="cls-2" d="M506.22,468.23a5.87,5.87,0,0,1,2-2.68A5.87,5.87,0,0,0,506.22,468.23Z"/>
        <path class="cls-2" d="M352,440.35c-1.25-1.37-2.56-2.68-3.9-4C349.44,437.67,350.75,439,352,440.35Z"/>
        <path class="cls-2" d="M382.91,353.87c0-1.73-.1-3.48-.23-5.25a66.43,66.43,0,0,0-5.39-22.43,66.43,66.43,0,0,1,5.39,22.43C382.81,350.39,382.89,352.14,382.91,353.87Z"/>
        <path class="cls-2" d="M361.6,512.8a87.67,87.67,0,0,0,4.44-20c.12-1.15.22-2.29.31-3.43-.09,1.14-.19,2.28-.31,3.43A87.67,87.67,0,0,1,361.6,512.8Z"/>
        <path class="cls-2" d="M302.3,285.44a3.76,3.76,0,0,1-1.12-.43h0A3.76,3.76,0,0,0,302.3,285.44Z"/>
        <path class="cls-2" d="M785.7,188.48l0,0a3.24,3.24,0,0,1-.64.52l0,0a5,5,0,0,1-1.73.61l-.14,0q-.48.07-1,.12h-.2c-.39,0-.8,0-1.24,0q-16-.06-32-.08-32,0-64,0H0v94.88H151.82q-5.26,18.17-10.52,36.29L109.83,429.46q-21,72.27-42,144.72h49.29l43.61,0q43.6,0,87.22-.16c4.62,0,9.24-.12,13.85-.35,13.83-.68,27.58-2.46,41-6.43a94.93,94.93,0,0,0,12.05-4.46q2.91-1.32,5.73-2.82c.93-.5,1.86-1,2.78-1.55a89.29,89.29,0,0,0,8-5.2,85.6,85.6,0,0,0,23.38-25.66q1.63-2.77,3.06-5.7a83.85,83.85,0,0,0,3.8-9.08,87.67,87.67,0,0,0,4.44-20c.12-1.15.22-2.29.31-3.43s.16-2.28.21-3.41c.08-1.7.12-3.38.12-5.05,0-.56,0-1.12,0-1.67a77.4,77.4,0,0,0-.83-9.82q-.37-2.41-.93-4.77c-.12-.53-.25-1.05-.39-1.57a54.06,54.06,0,0,0-2-6.16c-.2-.5-.41-1-.63-1.51a52,52,0,0,0-3-5.9,53.42,53.42,0,0,0-5-7.06c-.59-.71-1.2-1.4-1.83-2.08-1.25-1.37-2.56-2.68-3.9-4-3.35-3.22-6.91-6.26-10.25-9.47,1.62-1.13,3.32-2.23,5-3.37,1.14-.75,2.3-1.52,3.44-2.31q.85-.59,1.71-1.2c1.13-.81,2.25-1.66,3.33-2.54a95.29,95.29,0,0,0,17.34-18.12c1-1.31,1.84-2.64,2.7-4q1.92-3,3.53-6.21,1.08-2.12,2-4.3a74.64,74.64,0,0,0,6-28.42q0-1.27,0-2.58c0-1.73-.1-3.48-.23-5.25a66.43,66.43,0,0,0-5.39-22.43,55.2,55.2,0,0,0-6.59-11.05q-1.29-1.69-2.73-3.28a57.2,57.2,0,0,0-9.76-8.59c-1.22-.85-2.47-1.67-3.77-2.45q-1-.58-2-1.14a77.48,77.48,0,0,0-10.81-4.92l-2.3-.8c-1.55-.52-3.1-1-4.67-1.45-5.48-1.56-11.11-2.73-16.76-3.86l-7.26-1.44c-1.61-.32-3.22-.66-4.82-1l-2.4-.53c-.38-.09-.76-.14-1.14-.23a3.76,3.76,0,0,1-1.12-.43H475.42l-63,216.88q-5.25,18.09-10.51,36.19L391.4,574.33l1,.09,2.54.29a27.82,27.82,0,0,0,2.93.19c17.87,0,35.74,0,53.61,0q8.93,0,17.86.13c.63,0,1.22,0,1.76,0a10.31,10.31,0,0,0,2.19-.4,6.19,6.19,0,0,0,1.2-.51,5.33,5.33,0,0,0,1.45-1.19,7.8,7.8,0,0,0,.78-1.11,13.83,13.83,0,0,0,1.21-3.1q6.78-24.65,13.79-49.23t13.85-49.21a15.32,15.32,0,0,1,.69-2,5.87,5.87,0,0,1,2-2.68,5,5,0,0,1,1.54-.68,6.94,6.94,0,0,1,1.28-.23,12.31,12.31,0,0,1,1.52-.05c4.16.1,8.33.15,12.49.18l12.5.07c6.24,0,12.49.09,18.73.26l6.24.21c1.1.05,2.17.13,3.2.24a37.2,37.2,0,0,1,5.76,1,26.61,26.61,0,0,1,4.89,1.8,24.39,24.39,0,0,1,2.13,1.2,19.84,19.84,0,0,1,3.64,3,21,21,0,0,1,4,5.95A36.85,36.85,0,0,1,589,492.44q.71,20.08,1.46,40.16t1.43,40.15c.09,2.64.36,4.4,3.74,4.38l18.12,0L668.1,577a4.22,4.22,0,0,0,.49,0l.54-.11c.39-.09.86-.22,1.47-.34,0-1.15,0-2.29,0-3.43,0-.57,0-1.14,0-1.7s0-1.13,0-1.7q-.95-22.82-1.93-45.63t-1.92-45.63a41.24,41.24,0,0,0-1.36-9,31.65,31.65,0,0,0-4.68-10.05,28.86,28.86,0,0,0-3.53-4.13c-4.58-4.45-10.73-7.61-18.36-9.28l2.08-1,1.67-.77c14.76-6.53,27.51-14.85,37.66-25.41,1.36-1.4,2.66-2.85,3.93-4.34s2.47-3,3.63-4.59,2.28-3.18,3.34-4.83a89.08,89.08,0,0,0,7-13.23q1.22-2.82,2.25-5.77c.35-1,.69-2,1-3q1.44-4.53,2.49-9.39.9-4.14,1.38-8.19c.16-1.36.28-2.7.37-4s.15-2.66.17-4a74.5,74.5,0,0,0-.69-11.56,69.6,69.6,0,0,0-3.59-14.38A66.37,66.37,0,0,0,697,321.7a64.65,64.65,0,0,0-3.87-6.05,65.84,65.84,0,0,0-4.52-5.6c-11.27-12.51-27.53-21-47.19-23.32-1.39-.17-2.77-.38-4.16-.68a29.67,29.67,0,0,1-4.17-1.19l2.27-.13c.76,0,1.51-.07,2.27-.07H781.05c3.25,0,4.91,0,5.77.77q0-49.79,0-99.59A4.7,4.7,0,0,1,785.7,188.48ZM248.91,513.31a101.78,101.78,0,0,1-17.84,1.78c-18.81.22-37.62.09-56.43.07-1.45,0-2.89-.28-5.35-.53,1.58-5.46,2.92-10,4.24-14.63,4.15-14.37,8.36-28.71,12.38-43.11.93-3.31,2.3-4.9,6.12-4.85,19,.23,37.95.08,56.93.21a70.28,70.28,0,0,1,11.4,1.07c12.22,2.08,19.48,10.79,19.61,23.24C280.16,494.65,267.59,509.74,248.91,513.31Zm58.54-137.66c-4.86,13.17-15.3,20.14-28.6,20.65-24.08.92-48.23.34-72.35.36a16.56,16.56,0,0,1-3-.71c1.12-4,2.17-7.79,3.23-11.58,3.45-12.31,7-24.59,10.3-36.94.91-3.4,2.4-4.89,6.16-4.86,20.13.17,40.26,0,60.39.14a34.37,34.37,0,0,1,8.38,1.12C306.25,347.51,312.88,361,307.45,375.65Zm323.83,6c-7.65,18-22.6,25.89-41.11,26.61-21.26.81-42.58.2-63.88.19a18.76,18.76,0,0,1-2.82-.59c.75-3,1.35-5.5,2-8,4.73-17.12,9.58-34.21,14.16-51.37,1-3.76,2.43-5.45,6.69-5.39,20.12.28,40.26-.11,60.38.33C629.05,343.91,640,361.13,631.28,381.66Z"/>
        <path d="M787.75,775.51q0-242.16,0-484.33c0-3.33,0-5-.91-5.76q0,237.25.13,474.5c0,12-.56,18.65-2,22.1C787.73,781.71,787.75,780.47,787.75,775.51Z"/>
        <path d="M786.82,285.42c-.86-.76-2.52-.77-5.77-.77H637.6c-1.51,0-3,.13-4.54.2a36.32,36.32,0,0,0,8.33,1.87c44.93,5.32,72.11,42.8,62.5,87-7.5,34.52-29.84,56.61-61.33,70.54-1.07.48-2.13,1-3.75,1.74,17.43,3.83,27.19,15.39,27.93,32.47q2,45.63,3.85,91.26c.1,2.26,0,4.53,0,6.83a15.87,15.87,0,0,1-2.5.49c-24.15,0-48.31,0-72.47.1-3.38,0-3.65-1.74-3.74-4.38C591,546,589.94,519.21,589,492.44c-.61-17.59-8.73-26.4-26.43-27.13-16.64-.68-33.31-.33-50-.72-4.38-.1-6,1.64-7.08,5.66-9.12,32.84-18.59,65.58-27.64,98.44-1.37,5-3.54,6.42-8.59,6.36-23.82-.27-47.65-.11-71.47-.15-1.89,0-3.77-.32-6.43-.57,28.09-96.74,56-192.73,84-289.32H301.18a7.21,7.21,0,0,0,2.26.66c12.77,2.93,26,4.62,38.21,9.09,24.69,9.06,39.11,27.33,41,53.86,2.07,28.37-9.5,51.12-31.31,68.87-4.33,3.53-9.19,6.42-13.52,9.42,5.35,5.14,11.24,9.85,16,15.52,12.28,14.66,14.1,32,12.21,50.35-3.87,37.65-30.15,64.71-63.21,74.49-17.89,5.29-36.35,6.7-54.84,6.78-58.15.26-116.29.12-174.44.13H67.87l83.95-289.54H0V782c1.5,0,3,.12,4.49.12H781.22c1.62,0,2.83,0,3.75-.1,1.42-3.45,2-10.13,2-22.1Q786.8,522.67,786.82,285.42Z"/>
        <path d="M787,183.72Q786.7,91.86,786.81,0V185.83A14.52,14.52,0,0,0,787,183.72Z"/>
        <path d="M780.64,189.85c3.93,0,5.71-.86,6.17-4V0H0V189.76H652.7C695.35,189.76,738,189.69,780.64,189.85Z"/>
        <path d="M2180.66,446.92c1.18-9,2.14-18.11,3.58-27.1q8.7-54.69,17.64-109.33c.35-2.13.8-4.25,1.16-6.38,1.81-10.42.69-8.5,10.57-8.55,25.33-.11,50.65,0,76,0,1.79,0,3.58.16,6,.28-1.52,8.63-2.9,16.78-4.38,24.91q-22.8,125.94-45.55,251.89c-.74,4.1-2.22,5.52-6.42,5.5q-39.24-.25-78.48,0c-3.93,0-5.9-1.37-7.6-4.84q-34.79-71.08-69.83-142a11,11,0,0,0-3.37-4.41c-1.38,10.65-2.49,21.33-4.18,31.93-5.49,34.31-11.18,68.6-16.82,102.89a115.6,115.6,0,0,1-2.45,12.72c-.41,1.44-2.42,3.45-3.7,3.46-28.33.17-56.65.11-85,.06a11.38,11.38,0,0,1-2.42-.66c.18-1.77.25-3.54.56-5.27q24.26-134.3,48.61-268.58c1.54-8.52-.33-7.85,9.19-7.86,25,0,50,.11,75-.11,4.59,0,7,1.3,9.11,5.55q34.41,70.71,69.21,141.22c.8,1.62,1.64,3.21,2.47,4.81Z"/>
        <path d="M1579,444.9c6.73,3.37,12.68,6.29,18.57,9.33,12.21,6.28,17.28,16.83,18.18,30,1,15.46-2.08,30.47-4.57,45.56-1.44,8.69-3,17.38-4.11,26.11-.68,5.16-1,10.42,5.21,13.19.83.37,1.08,3.22.72,4.7a7.33,7.33,0,0,1-2.88,3.93c-.93.64-2.58.26-3.91.26-28,0-56-.12-84,.12-5.08,0-7.14-1.64-6.61-6.51,1.75-16.18,3.6-32.35,5.32-48.54.68-6.43,1.6-12.9,1.56-19.34-.07-10.66-5.23-17.88-15.57-20.59a125.34,125.34,0,0,0-24.13-3.45c-9.46-.58-19,0-28.47-.25-3.9-.11-5.08,1.44-5.71,5-5.2,29.65-10.64,59.25-15.86,88.9-.61,3.48-2.08,4.69-5.58,4.68-28.66-.1-57.31-.05-86-.08a38.48,38.48,0,0,1-4.41-.58c1.8-10.14,3.53-19.92,5.3-29.68q22.25-123,44.44-246c.78-4.33,1.93-6.43,7.12-6.4,47.65.28,95.3,0,142.94.36,20.5.17,40.94,1.89,60.76,7.81a95.59,95.59,0,0,1,9.86,3.53c22.9,9.69,34.2,26.79,33.27,51.6-.82,22.15-7.23,42.51-21.45,60a75.87,75.87,0,0,1-34.3,24.07C1583,443.38,1581.34,444,1579,444.9Zm-118-28.1c16.92,0,33,.41,49.13-.21a64.69,64.69,0,0,0,19.87-4.34c13.7-5.14,18.36-15.46,18.32-29.09,0-10.72-8.68-19.15-22.19-20.3-15.05-1.28-30.25-.95-45.39-1.17-9.78-.14-9.86,0-11.62,9.63C1466.4,386.35,1463.77,401.39,1461,416.8Z"/>
        <path d="M3459.13,577.54c3.91-21.61,7.66-42.37,11.42-63.14q19.24-106.27,38.37-212.59c.88-5,2.63-6.42,7.63-6.4,47.48.22,95-.06,142.44.33,20.32.17,40.61,1.83,60.27,7.69a98.56,98.56,0,0,1,10.81,3.86c24.14,10.35,35.34,30.27,32.61,56.35-2.29,21.78-9.09,41.47-23.83,58.08-9.07,10.22-20.25,17.15-33.07,21.59-1.24.43-2.47.88-4.73,1.69,3.92,1.76,6.94,3.3,10.09,4.52,19.85,7.66,29.09,22.2,27,43.2-1.57,16-4.29,31.94-6.48,47.9-.85,6.26-1.85,12.51-2.4,18.79-.35,4,.66,7.53,4.95,9.47.91.41,1.66,2.76,1.36,3.92a10.91,10.91,0,0,1-3,5c-.74.68-2.56.26-3.89.26-28,0-56-.11-84,.11-5,0-7.19-1.47-6.64-6.46,1.81-16.34,3.66-32.68,5.4-49,.67-6.27,1.54-12.57,1.5-18.85-.07-10.62-5.25-17.88-15.56-20.62a121.06,121.06,0,0,0-23.62-3.45c-9.63-.58-19.32,0-29-.25-3.85-.11-5.11,1.35-5.74,5-5.17,29.48-10.61,58.92-15.77,88.41-.68,3.91-2.23,5.24-6.15,5.22-28.32-.12-56.65-.06-85-.08C3462.72,578,3461.27,577.75,3459.13,577.54Zm124.32-160.66a23.25,23.25,0,0,0,3,.46c13.83,0,27.69.53,41.46-.32a88.63,88.63,0,0,0,25.26-5.14c13.85-5.19,17.8-16.16,17.6-29-.16-10.47-8.49-18.87-21.47-19.88-17.72-1.38-35.58-1-53.38-1.09-1.16,0-3,2.67-3.36,4.36-1.68,8-3,16-4.38,24C3586.6,399.09,3585.05,407.88,3583.45,416.88Z"/>
        <path d="M3907.58,585.36c-19.3-.18-43.23-3.57-65.45-14.79-33.93-17.14-52.37-45.41-55.71-82.61-4.29-47.68,6.08-92.16,35.56-130.73,30.6-40,71.74-62.18,121.7-67.72,28.11-3.12,55.86-1.61,82.59,8.92,40.32,15.9,62.51,46.19,67.55,88.36,10.09,84.36-43.09,165.37-123.86,190.29C3951.38,582.82,3932.29,585.41,3907.58,585.36Zm92-169.86c-.2-12.84-1.27-23.55-5.87-33.61-5.17-11.3-12.87-20.19-25.53-22.5-7.9-1.43-16.32-2.09-24.22-1-19.49,2.68-33.28,14.41-43.14,30.85-14.34,23.91-20.17,50.11-19.4,77.8a69.09,69.09,0,0,0,7.3,29.8c4.6,9,11.85,14.63,21.48,17.28a59.24,59.24,0,0,0,63.92-22C3991.39,468.81,3997.45,441.79,3999.59,415.5Z"/>
        <path d="M3011.16,401.46h119.22c-.75,4.53-1.34,8.21-2,11.88-2.89,16.37-5.94,32.72-8.6,49.13-.68,4.21-2.38,5.36-6.49,5.34-35.65-.15-71.3,0-106.94-.21-5.39,0-7.55,1.33-8.3,6.85-1.56,11.36-3.95,22.6-6,33.89a23.74,23.74,0,0,0,0,3.28h146c-1.33,7.45-2.48,13.94-3.66,20.43-2.46,13.58-5,27.14-7.36,40.74-.64,3.7-2,5.33-6.1,5.32Q3005,577.94,2889,578c-1.43,0-2.86-.31-4.85-.53,1.84-10.41,3.57-20.36,5.37-30.29q22.28-123,44.46-245.93c.83-4.65,2.58-5.83,7.07-5.82q112.18.18,224.38.1c1.78,0,3.56.17,5.89.3-2.15,12-4.18,23.39-6.25,34.81-1.58,8.67-3.41,17.3-4.71,26-.6,4-2.28,5.09-6.18,5.08q-64.23-.18-128.44-.05c-7.39,0-7.33-1.56-8.79,7.13C3015.2,379.44,3013.21,390,3011.16,401.46Z"/>
        <path d="M2577.33,377.29a15.28,15.28,0,0,1-2.23.35q-41.73,0-83.47.07c-2.85,0-4.12-.83-4.43-3.88-.89-8.88-6-14.68-14.34-17.39a62.85,62.85,0,0,0-39.77.14c-8.08,2.65-12.3,8.31-12.21,15.85.09,7.25,4.68,11.83,10.91,14.14,10,3.69,20.19,6.73,30.38,9.81,19.11,5.78,38.47,10.82,57.33,17.32A92.85,92.85,0,0,1,2543.94,427c20.23,15,26.56,35.52,22.2,60-6.61,37.11-27.06,63.8-61.08,79.25-46.19,21-94.11,25.62-143.16,11-18.78-5.61-34.8-15.91-46.77-31.74-11.22-14.85-15.7-31.67-14.25-50.2.31-3.87,1.89-5,5.63-4.94,27,.12,54,.06,81,.06,2.5,0,4.91-.31,5.38,3.43,1.87,14.73,11.69,21.89,25.11,24.77a66.37,66.37,0,0,0,39.71-3.56,31.42,31.42,0,0,0,11.25-7.93c7-7.93,5.13-18-4.1-23.23a61.77,61.77,0,0,0-13.36-5.48c-20.34-5.77-40.93-10.7-61.06-17.09a169.49,169.49,0,0,1-33.74-14.69c-25.23-14.68-34.3-38.84-28-70.19q8.43-42,45-64.23c28.62-17.41,60.08-23.69,93.14-24.06,20.83-.24,41.21,1.92,60.81,9.46C2564.11,311.71,2579,345.09,2577.33,377.29Z"/>
        <path d="M2733.69,490.28c-10.16,0-20.32.19-30.47-.09-4.41-.12-6.36,1-7.18,5.74C2691.72,521,2687,546,2682.39,571c-1.28,7-1.24,7-8.56,7h-80.44c-7.46,0-7.51,0-6.18-7.39q24.43-135,48.77-269.94c.77-4.31,2.49-5.27,6.52-5.26,46.46.13,92.93,0,139.4.17,18.72.08,37.27,2.22,54.91,9,25.74,9.86,43.61,26.89,47.36,55.36,6.54,49.71-23.83,100.5-70.43,118.81-21.25,8.35-43.47,10.92-66.06,11.48C2743,490.37,2738.36,490.27,2733.69,490.28Zm-24.75-66c19.92-1.15,39,2.37,57.54-3,16.79-4.9,27.08-19.82,25.66-37a21.93,21.93,0,0,0-4.46-10.69c-4.9-6.52-12.5-9.11-20.12-9.76-14.72-1.24-29.52-1.55-44.29-1.91-1.26,0-3.44,2.31-3.74,3.83-2.58,13-4.83,26.13-7.17,39.21C2711.29,410.91,2710.24,416.93,2708.94,424.31Z"/>
        <path d="M1629.49,577.44c1.1-2.18,1.85-3.8,2.71-5.37q74.55-135.87,149-271.79c1.92-3.51,4.06-4.87,8.13-4.85q42.72.27,85.45,0c4.56,0,6.18,1.35,7,5.89Q1906.92,436.7,1932.31,572c.3,1.6.39,3.25.66,5.51-2,.2-3.74.5-5.46.51-27.82,0-55.64-.07-83.45.11-4.27,0-5.85-1.37-6.24-5.52-.85-9.1-2.29-18.15-3.13-27.25-.32-3.56-1.51-4.86-5.17-4.85q-42.72.18-85.44,0c-3.2,0-4.76,1.24-6,4-4.59,10-9.23,19.93-14.23,29.7-.9,1.75-3.63,3.64-5.53,3.66-28.48.23-57,.16-85.44.13A25.59,25.59,0,0,1,1629.49,577.44Zm186.8-194.07-1-.35c-15.37,32.5-30.75,65-46.45,98.17,2.54.13,4.15.28,5.76.28q23.48,0,47,0c6.26,0,6.52-.24,5.77-6.55Q1821.85,429.14,1816.29,383.37Z"/>
        <path d="M1350.75,295.83c-2.15,12.2-4.18,23.8-6.24,35.39-2,11-4,21.92-5.82,32.92-.66,4.06-2.11,5.81-6.68,5.77-24.48-.25-49,0-73.46-.23-4.77-.05-6.58,1.32-7.43,6.08q-16.47,92.08-33.32,184.09c-.89,4.91-1.59,9.87-2.88,14.68-.37,1.39-2.49,3.31-3.82,3.32-29.65.17-59.3.11-89,.06a13.91,13.91,0,0,1-2.62-.68c1.2-6.83,2.36-13.65,3.59-20.45q16.55-91,33.18-182.08c.84-4.54-1.1-5-4.74-4.95-24.32.09-48.64,0-73,0h-6.65c1.62-9.12,3.1-17.41,4.57-25.7,2.5-14.08,5.19-28.13,7.38-42.26.75-4.9,2.58-6.44,7.63-6.42,55.31.19,110.62.11,165.93.11q43.23,0,86.46,0C1346,295.54,1348.12,295.71,1350.75,295.83Z"/>
        <path d="M3279.16,369.84h-84.35c.17-2.25.14-3.87.42-5.43,3.83-21.44,7.78-42.86,11.5-64.33.61-3.49,2-4.62,5.51-4.62q128.18.14,256.37.09c1.29,0,2.59.24,4.49.44-1.7,9.76-3.33,19.21-5,28.65-2.33,13.1-4.84,26.17-6.95,39.3-.71,4.39-2.33,6-7,6-24.31-.25-48.64,0-73-.24-5-.05-6.82,1.47-7.7,6.39q-17.4,97.23-35.16,194.4c-1.37,7.56-1.31,7.58-9.08,7.58q-40.49,0-81,0c-6.53,0-6.52,0-5.37-6.38q17.74-97.93,35.48-195.86C3278.67,374.06,3278.84,372.29,3279.16,369.84Z"/>
        <path d="M523.47,407.87c.75-3,1.35-5.5,2-8,4.73-17.12,9.58-34.21,14.16-51.37,1-3.76,2.43-5.45,6.69-5.39,20.12.28,40.26-.11,60.38.33,22.3.48,33.26,17.7,24.53,38.23-7.65,18-22.6,25.89-41.11,26.61-21.26.81-42.58.2-63.88.19A18.76,18.76,0,0,1,523.47,407.87Z"/>
        <path d="M169.29,514.63c1.58-5.46,2.92-10,4.24-14.63,4.15-14.37,8.36-28.71,12.38-43.11.93-3.31,2.3-4.9,6.12-4.85,19,.23,37.95.08,56.93.21a70.28,70.28,0,0,1,11.4,1.07c12.22,2.08,19.48,10.79,19.61,23.24.19,18.09-12.38,33.18-31.06,36.75a101.78,101.78,0,0,1-17.84,1.78c-18.81.22-37.62.09-56.43.07C173.19,515.16,171.75,514.88,169.29,514.63Z"/>
        <path d="M203.49,396c1.12-4,2.17-7.79,3.23-11.58,3.45-12.31,7-24.59,10.3-36.94.91-3.4,2.4-4.89,6.16-4.86,20.13.17,40.26,0,60.39.14a34.37,34.37,0,0,1,8.38,1.12c14.3,3.68,20.93,17.13,15.5,31.82-4.86,13.17-15.3,20.14-28.6,20.65-24.08.92-48.23.34-72.35.36A16.56,16.56,0,0,1,203.49,396Z"/>
      </g>
    </g>
  </g>
</svg>
